<svg width="32" viewBox="0 0 58 56" fill="none" xmlns="http://www.w3.org/2000/svg">
<path d="M24.8106 40.2938V54.858C15.1703 54.858 1.76792 43.3476 2.00305 27.139C2.23818 10.9304 16.8162 1.53409 29.0429 1.06428C41.2697 0.594463 56.5531 11.6351 56.318 27.139C56.0828 42.6428 44.3264 54.858 33.2753 54.858V35.3607C35.6266 35.1258 39.3886 34.656 41.2697 31.1324C42.6379 28.5694 42.2102 20.7965 42.2102 16.5681C42.2102 14.454 40.5853 13.9201 39.6238 13.9842C38.7362 14.0433 37.2725 14.454 37.2725 16.5681C37.2725 18.4944 37.2725 26.4342 36.8022 28.3135C36.332 30.1928 33.1266 29.7229 33.1266 29.7229V12.1049C33.1266 9.05112 31.3825 7.70738 29.2781 7.64168C27.3614 7.58184 25.1652 8.81621 25.1652 12.1049C25.1652 14.9238 24.8106 34.8909 24.8106 34.8909C24.8106 34.8909 22.0997 34.9848 21.5188 32.7767C20.9379 30.5687 21.2837 25.2597 21.2837 22.2059C21.2837 20.3267 20.3432 19.1521 18.9324 19.1521C17.5216 19.1521 16.5811 20.0918 16.5811 22.2059C16.5811 27.139 15.8757 34.656 17.5216 37.24C19.1675 39.824 24.8106 40.2938 24.8106 40.2938Z" stroke="#64748b" stroke-width="2.04984"/>
</svg>
